<svg width="50" height="44" viewBox="0 0 50 44" fill="none" xmlns="http://www.w3.org/2000/svg">
<path d="M3.125 0.0352478C1.375 0.0352478 0 1.41219 0 3.16466C0 4.91712 1.375 6.29406 3.125 6.29406C4.875 6.29406 6.25 4.91712 6.25 3.16466C6.25 1.41219 4.875 0.0352478 3.125 0.0352478ZM12.5 0.0352478V6.29406H50V0.0352478H12.5ZM3.125 12.5529C1.375 12.5529 0 13.9298 0 15.6823C0 17.4348 1.375 18.8117 3.125 18.8117C4.875 18.8117 6.25 17.4348 6.25 15.6823C6.25 13.9298 4.875 12.5529 3.125 12.5529ZM12.5 12.5529V18.8117H50V12.5529H12.5ZM3.125 25.0705C1.375 25.0705 0 26.4474 0 28.1999C0 29.9524 1.375 31.3293 3.125 31.3293C4.875 31.3293 6.25 29.9524 6.25 28.1999C6.25 26.4474 4.875 25.0705 3.125 25.0705ZM12.5 25.0705V31.3293H50V25.0705H12.5ZM3.125 37.5881C1.375 37.5881 0 38.9651 0 40.7175C0 42.47 1.375 43.847 3.125 43.847C4.875 43.847 6.25 42.47 6.25 40.7175C6.25 38.9651 4.875 37.5881 3.125 37.5881ZM12.5 37.5881V43.847H50V37.5881H12.5Z" fill="white"/>
</svg>
