<svg width="50" height="52" viewBox="0 0 50 52" fill="none" xmlns="http://www.w3.org/2000/svg">
<path d="M25 0.0253906C32.8257 0.0253906 39.1695 6.37816 39.1695 14.2147C39.1695 22.0513 32.8256 28.4041 25 28.4041C17.1745 28.4041 10.8307 22.0513 10.8307 14.2147C10.8397 6.38182 17.1782 0.0344263 24.9992 0.0253906H25ZM25 26.1265C31.5695 26.1265 36.8951 20.7935 36.8951 14.2148C36.8951 7.63607 31.5695 2.30308 25 2.30308C18.4306 2.30308 13.1051 7.63612 13.1051 14.2148C13.1129 20.7904 18.4338 26.1189 24.9993 26.1266H25.0001L25 26.1265ZM47.762 51.4282L46.9205 46.7546C44.9517 36.2778 35.8862 28.4577 24.9967 28.4577C14.1202 28.4577 5.06332 36.2591 3.10153 46.5788L3.07947 46.7182L2.23799 51.3827L0 50.9773L0.841538 46.3082C3.02268 34.7759 13.0067 26.1721 24.9974 26.1721H25.0002H25C37.0017 26.1755 46.9914 34.7979 49.1323 46.1942L49.1562 46.3469L50 51.0251L47.762 51.4282Z" fill="white"/>
</svg>
